HIERARCHY
ROOT Hips
{
    OFFSET   0.000000   0.000000   0.000000
    CHANNELS 6 Xposition Yposition Zposition Zrotation Xrotation Yrotation
    JOINT Chest
    {
        OFFSET   0.000000   8.007230   0.000000
        CHANNELS 3 Zrotation Xrotation Yrotation
        JOINT Chest2
        {
            OFFSET   0.000000  22.077100   0.000000
            CHANNELS 3 Zrotation Xrotation Yrotation
            JOINT Neck
            {
                OFFSET   0.000000  23.254800   0.000000
                CHANNELS 3 Zrotation Xrotation Yrotation
                JOINT Head
                {
                    OFFSET   0.000010  14.370000   1.956600
                    CHANNELS 3 Zrotation Xrotation Yrotation
                    End Site
                    {
                        OFFSET   0.000000  19.566000   0.000000
                    }
                }
            }
            JOINT LeftCollar
            {
                OFFSET   3.911900  19.017000  -0.467062
                CHANNELS 3 Zrotation Xrotation Yrotation
                JOINT LeftShoulder
                {
                    OFFSET  10.383700   0.000000   0.000000
                    CHANNELS 3 Zrotation Xrotation Yrotation
                    JOINT LeftElbow
                    {
                        OFFSET  26.662100   0.001193   0.000835
                        CHANNELS 3 Zrotation Xrotation Yrotation
                        JOINT LeftWrist
                        {
                            OFFSET  28.869000  -0.000058  -0.000075
                            CHANNELS 3 Zrotation Xrotation Yrotation
                            JOINT LeftFinger0
                            {
                                OFFSET   2.044660  -2.323460   3.252850
                                CHANNELS 3 Zrotation Xrotation Yrotation
                                JOINT LeftFinger01
                                {
                                    OFFSET   3.088130   0.000000   0.000000
                                    CHANNELS 3 Zrotation Xrotation Yrotation
                                    JOINT LeftFinger02
                                    {
                                        OFFSET   2.639450   0.000000   0.000000
                                        CHANNELS 3 Zrotation Xrotation Yrotation
                                        End Site
                                        {
                                            OFFSET   2.582190   0.000000   0.000000
                                        }
                                    }
                                }
                            }
                            JOINT LeftFinger1
                            {
                                OFFSET   8.364480   0.000000   3.252850
                                CHANNELS 3 Zrotation Xrotation Yrotation
                                JOINT LeftFinger11
                                {
                                    OFFSET   4.646920   0.000000   0.000000
                                    CHANNELS 3 Zrotation Xrotation Yrotation
                                    JOINT LeftFinger12
                                    {
                                        OFFSET   2.323460   0.000000   0.000000
                                        CHANNELS 3 Zrotation Xrotation Yrotation
                                        End Site
                                        {
                                            OFFSET   2.273050   0.000000   0.000000
                                        }
                                    }
                                }
                            }
                            JOINT LeftFinger2
                            {
                                OFFSET   8.364490   0.000016   1.078090
                                CHANNELS 3 Zrotation Xrotation Yrotation
                                JOINT LeftFinger21
                                {
                                    OFFSET   5.111620   0.000000   0.000000
                                    CHANNELS 3 Zrotation Xrotation Yrotation
                                    JOINT LeftFinger22
                                    {
                                        OFFSET   2.788150   0.000012   0.000000
                                        CHANNELS 3 Zrotation Xrotation Yrotation
                                        End Site
                                        {
                                            OFFSET   2.727660   0.000000   0.000000
                                        }
                                    }
                                }
                            }
                            JOINT LeftFinger3
                            {
                                OFFSET   7.899780   0.000014  -1.078090
                                CHANNELS 3 Zrotation Xrotation Yrotation
                                JOINT LeftFinger31
                                {
                                    OFFSET   4.646930   0.000000   0.000000
                                    CHANNELS 3 Zrotation Xrotation Yrotation
                                    JOINT LeftFinger32
                                    {
                                        OFFSET   2.323470   0.000000   0.000000
                                        CHANNELS 3 Zrotation Xrotation Yrotation
                                        End Site
                                        {
                                            OFFSET   2.273050   0.000000   0.000000
                                        }
                                    }
                                }
                            }
                            JOINT LeftFinger4
                            {
                                OFFSET   7.435090   0.000000  -3.252850
                                CHANNELS 3 Zrotation Xrotation Yrotation
                                JOINT LeftFinger41
                                {
                                    OFFSET   3.717550   0.000000   0.000000
                                    CHANNELS 3 Zrotation Xrotation Yrotation
                                    JOINT LeftFinger42
                                    {
                                        OFFSET   1.858770   0.000000   0.000000
                                        CHANNELS 3 Zrotation Xrotation Yrotation
                                        End Site
                                        {
                                            OFFSET   1.818440   0.000000   0.000000
                                        }
                                    }
                                }
                            }
                        }
                    }
                }
            }
            JOINT RightCollar
            {
                OFFSET  -3.911900  19.017000  -0.467063
                CHANNELS 3 Zrotation Xrotation Yrotation
                JOINT RightShoulder
                {
                    OFFSET -10.383700   0.000023   0.000000
                    CHANNELS 3 Zrotation Xrotation Yrotation
                    JOINT RightElbow
                    {
                        OFFSET -26.662100   0.001246   0.001011
                        CHANNELS 3 Zrotation Xrotation Yrotation
                        JOINT RightWrist
                        {
                            OFFSET -28.869000  -0.000026  -0.000078
                            CHANNELS 3 Zrotation Xrotation Yrotation
                            JOINT RightFinger0
                            {
                                OFFSET  -2.044660  -2.323490   3.252850
                                CHANNELS 3 Zrotation Xrotation Yrotation
                                JOINT RightFinger01
                                {
                                    OFFSET  -3.088130   0.000000   0.000000
                                    CHANNELS 3 Zrotation Xrotation Yrotation
                                    JOINT RightFinger02
                                    {
                                        OFFSET  -2.639460   0.000000   0.000000
                                        CHANNELS 3 Zrotation Xrotation Yrotation
                                        End Site
                                        {
                                            OFFSET  -2.582190   0.000000   0.000000
                                        }
                                    }
                                }
                            }
                            JOINT RightFinger1
                            {
                                OFFSET  -8.364480   0.000000   3.252850
                                CHANNELS 3 Zrotation Xrotation Yrotation
                                JOINT RightFinger11
                                {
                                    OFFSET  -4.646920   0.000000   0.000000
                                    CHANNELS 3 Zrotation Xrotation Yrotation
                                    JOINT RightFinger12
                                    {
                                        OFFSET  -2.323470   0.000000   0.000000
                                        CHANNELS 3 Zrotation Xrotation Yrotation
                                        End Site
                                        {
                                            OFFSET  -2.273050   0.000000   0.000000
                                        }
                                    }
                                }
                            }
                            JOINT RightFinger2
                            {
                                OFFSET  -8.364480   0.000000   1.078090
                                CHANNELS 3 Zrotation Xrotation Yrotation
                                JOINT RightFinger21
                                {
                                    OFFSET  -5.111620   0.000000   0.000000
                                    CHANNELS 3 Zrotation Xrotation Yrotation
                                    JOINT RightFinger22
                                    {
                                        OFFSET  -2.788160   0.000000   0.000000
                                        CHANNELS 3 Zrotation Xrotation Yrotation
                                        End Site
                                        {
                                            OFFSET  -2.727660   0.000000   0.000000
                                        }
                                    }
                                }
                            }
                            JOINT RightFinger3
                            {
                                OFFSET  -7.899780   0.000000  -1.078090
                                CHANNELS 3 Zrotation Xrotation Yrotation
                                JOINT RightFinger31
                                {
                                    OFFSET  -4.646930   0.000000   0.000000
                                    CHANNELS 3 Zrotation Xrotation Yrotation
                                    JOINT RightFinger32
                                    {
                                        OFFSET  -2.323470   0.000000   0.000000
                                        CHANNELS 3 Zrotation Xrotation Yrotation
                                        End Site
                                        {
                                            OFFSET  -2.273050   0.000000   0.000000
                                        }
                                    }
                                }
                            }
                            JOINT RightFinger4
                            {
                                OFFSET  -7.435090   0.000000  -3.252850
                                CHANNELS 3 Zrotation Xrotation Yrotation
                                JOINT RightFinger41
                                {
                                    OFFSET  -3.717550   0.000000   0.000000
                                    CHANNELS 3 Zrotation Xrotation Yrotation
                                    JOINT RightFinger42
                                    {
                                        OFFSET  -1.858760   0.000000   0.000000
                                        CHANNELS 3 Zrotation Xrotation Yrotation
                                        End Site
                                        {
                                            OFFSET  -1.818440   0.000000   0.000000
                                        }
                                    }
                                }
                            }
                        }
                    }
                }
            }
        }
    }
    JOINT LeftHip
    {
        OFFSET   9.783010   0.000000   0.000000
        CHANNELS 3 Zrotation Xrotation Yrotation
        JOINT LeftKnee
        {
            OFFSET   0.000073 -41.789100   0.001749
            CHANNELS 3 Zrotation Xrotation Yrotation
            JOINT LeftAnkle
            {
                OFFSET   0.000111 -41.133200  -0.000179
                CHANNELS 3 Zrotation Xrotation Yrotation
                JOINT LeftToe
                {
                    OFFSET   0.000000  -6.358960  14.674500
                    CHANNELS 3 Zrotation Xrotation Yrotation
                    End Site
                    {
                        OFFSET   0.000000   0.000000   3.913200
                    }
                }
            }
        }
    }
    JOINT RightHip
    {
        OFFSET  -9.783010   0.000000   0.000000
        CHANNELS 3 Zrotation Xrotation Yrotation
        JOINT RightKnee
        {
            OFFSET   0.000424 -41.789200   0.005205
            CHANNELS 3 Zrotation Xrotation Yrotation
            JOINT RightAnkle
            {
                OFFSET   0.000000 -41.133200  -0.000155
                CHANNELS 3 Zrotation Xrotation Yrotation
                JOINT RightToe
                {
                    OFFSET   0.000000  -6.358960  14.674500
                    CHANNELS 3 Zrotation Xrotation Yrotation
                    End Site
                    {
                        OFFSET   0.000000   0.000000   3.913200
                    }
                }
            }
        }
    }
}
MOTION
Frames: 5
Frame Time:   0.016667
 -1.072040  89.485900   0.263402  -2.942030  -8.433170  -3.789200   1.399390   5.447710   1.566420   2.666190  10.930300   3.018770   1.962070  -0.985987   0.035943   3.226160  -1.992440  -0.060780  -7.485740   0.289127  -3.265860 -68.202500  22.525800  -9.013360  -2.960000  -6.752380 -10.832400   4.371950  -8.781870  11.230900  39.540800  26.501700 -66.334700 -20.493000   0.001789   0.001282  -5.246510  -0.009816   0.002854 -30.882200   8.869370 -14.453200 -26.193600   0.004159   0.003449 -18.333800   0.004224  -0.000000 -28.531900   2.107820  -3.870320 -37.435500   0.005974  -0.004308 -24.932000   0.007431  -0.003859 -28.747200  -0.006200   0.011255 -40.180500  -0.001284  -0.001496 -26.760200   0.003104   0.002395 -36.834800  -0.208580   0.278538 -55.252900   0.000231  -0.001277 -36.798400   0.001257  -0.000504   4.520460  -3.460590  15.263800  47.883600  12.407400  69.366700 -18.992500 -26.925300  81.349900  10.650800  47.966700   7.969900 -18.168000  38.863100  58.494600  82.833700   0.005141  -0.039695  48.507300   0.003001   0.002778  18.903200   6.449270  18.212800  16.287600   0.001092   0.004987  11.401300   0.004107   0.001418  22.122100  -1.672230  -4.105150  22.158400   0.016175   0.001292  14.757500   0.011378  -0.000414  62.620100  -5.894590  -3.043570  62.776700   0.001105   0.001076  47.082500   0.004811  -0.003834  67.835600  -9.275960  -3.756140 102.211000  -0.001780   0.002237  68.072300  -0.001281   0.004232   3.297920  12.345100   1.788010   1.037230   0.487581   0.953170  -3.836640  -4.012180   9.270350  -0.000000   0.000000  -0.000000   1.390850   6.681050  -4.336800   0.916482   5.670600   4.347010  -4.784380  -3.597660   3.043390   0.000000   0.000000   0.000000
 -1.069330  89.490200   0.282156  -2.929580  -8.462680  -3.738730   1.379710   5.453400   1.555010   2.627570  10.941200   2.997600   1.953380  -0.998789   0.035854   3.211920  -2.018430   0.179573  -7.457060   0.325861  -3.269480 -68.224600  22.472600  -8.944590  -2.964810  -6.761970 -10.791400   4.341770  -8.777180  11.226300  39.532400  26.500700 -66.343600 -20.488600   0.001778   0.001325  -5.244320  -0.009899   0.002864 -30.869500   8.888460 -14.490300 -26.187400   0.004139   0.003459 -18.333700   0.004224   0.000042 -28.531100   2.108850  -3.872210 -37.444500   0.006041  -0.004315 -24.938000   0.007505  -0.003868 -28.747100  -0.005518   0.010013 -40.165000  -0.001296  -0.001503 -26.749800   0.003149   0.002401 -36.824400  -0.205968   0.275117 -55.237300   0.000158  -0.001246 -36.788000   0.001198  -0.000525   4.506890  -3.369160  15.196500  47.857700  12.062800  69.315600 -19.818600 -25.867700  80.842600  11.479000  53.014600   4.043230 -17.579700  37.771000  57.761600  83.599000   0.005031  -0.043427  49.017100   0.002862   0.002775  19.099600   6.337120  17.720600  16.428700  -0.000565   0.004795  11.500000   0.003933   0.001412  22.362200  -1.829830  -4.419380  22.417200   0.004530   0.001274  14.929800   0.003271  -0.000395  62.607300  -5.895920  -3.045670  62.764000   0.001066   0.001887  47.073000   0.004805  -0.003648  67.820200  -9.275470  -3.758600 102.188000  -0.001783   0.002447  68.057100  -0.001209   0.004237   3.299350  12.386000   1.771160   1.038080   0.468217   0.938959  -3.842590  -4.003600   9.248400  -0.000000   0.000000  -0.000000   1.391130   6.723170  -4.368330   0.918776   5.670310   4.320470  -4.792230  -3.615140   3.049360   0.000000   0.000000  -0.000000
 -1.066110  89.493200   0.302415  -2.917640  -8.496540  -3.694600   1.361040   5.465810   1.540350   2.591120  10.965000   2.969710   1.947700  -1.013000   0.035765   3.202610  -2.047170   0.435298  -7.430670   0.361928  -3.273100 -68.237900  22.440100  -8.882250  -2.974590  -6.787240 -10.749900   4.311230  -8.766840  11.208900  39.529000  26.515500 -66.365800 -20.464900   0.001767   0.001367  -5.232440  -0.009980   0.002871 -30.859400   8.903020 -14.518400 -26.182000   0.004119   0.003469 -18.333600   0.004224   0.000106 -28.529300   2.116090  -3.885410 -37.445900   0.006108  -0.004322 -24.939000   0.007578  -0.003878 -28.746900  -0.000751   0.001322 -40.136600  -0.001309  -0.001510 -26.730900   0.003193   0.002409 -36.808300  -0.201918   0.269801 -55.213100   0.000092  -0.001215 -36.771900   0.001135  -0.000550   4.490870  -3.274520  15.140100  47.737400  11.745600  69.300000 -20.710800 -24.837500  80.326200  13.299900  57.242900  -0.732077 -17.142500  36.762600  57.176800  84.040900   0.004917  -0.045885  49.311400   0.002727   0.002774  19.249800   6.234710  17.285900  16.522100  -0.001878   0.004606  11.565400   0.003767   0.001403  22.485700  -1.957370  -4.708580  22.560800  -0.003609   0.001255  15.025500  -0.002523  -0.000378  62.559700  -5.899960  -3.053390  62.716800   0.001026   0.002092  47.037600   0.004799  -0.003445  67.774800  -9.273370  -3.765800 102.121000  -0.001790   0.002477  68.012400  -0.001188   0.004240   3.299510  12.422200   1.751500   1.040400   0.465452   0.932215  -3.848430  -4.002560   9.229140  -0.000000   0.000000   0.000000   1.391110   6.770480  -4.396240   0.921022   5.669560   4.291890  -4.798480  -3.633640   3.058720   0.000000   0.000000  -0.000000
 -1.062870  89.494000   0.324189  -2.907100  -8.533510  -3.659120   1.344190   5.481880   1.521580   2.558690  10.996300   2.933270   1.944160  -1.030010   0.035622   3.194040  -2.081460   0.713710  -7.410400   0.399671  -3.258770 -68.237500  22.432900  -8.834770  -2.989680  -6.833430 -10.712800   4.281880  -8.731320  11.161700  39.559600  26.574400 -66.415300 -20.391800   0.001769   0.001394  -5.195860  -0.010060   0.002886 -30.863000   8.892490 -14.502700 -26.181200   0.004095   0.003479 -18.333400   0.004227   0.000142 -28.524200   2.146490  -3.941850 -37.403700   0.006175  -0.004327 -24.910800   0.007650  -0.003889 -28.746700   0.027350  -0.049956 -40.075000  -0.001322  -0.001516 -26.689900   0.003236   0.002416 -36.770300  -0.192349   0.257233 -55.156100   0.000050  -0.001183 -36.733900   0.001050  -0.000592   4.467630  -3.171850  15.108100  47.591700  11.443900  69.261100 -21.594400 -23.849700  79.931400  16.612700  60.794100  -6.788390 -16.994200  35.879600  56.870300  83.885500   0.004796  -0.044530  49.207900   0.002600   0.002771  19.281400   6.184710  17.099400  16.520900  -0.002387   0.004425  11.564500   0.003610   0.001387  22.375100  -1.992600  -4.828410  22.457300  -0.003757   0.001235  14.956600  -0.002634  -0.000360  62.467000  -5.907220  -3.068190  62.625000   0.000985   0.002284  46.968800   0.004784  -0.003229  67.698500  -9.269250  -3.777800 102.008000  -0.001797   0.002291  67.937000  -0.001158   0.004241   3.297260  12.452100   1.731590   1.045530   0.480828   0.932920  -3.850680  -4.008090   9.211700  -0.000000   0.000000  -0.000000   1.390810   6.820700  -4.416240   0.922728   5.668350   4.269580  -4.803100  -3.650530   3.062060  -0.000000   0.000000   0.000000
 -1.059940  89.494300   0.346684  -2.898270  -8.574660  -3.633670   1.327870   5.501510   1.502350   2.527300  11.034800   2.895810   1.943010  -1.047010   0.035530   3.195130  -2.115670   1.006920  -7.392030   0.435690  -3.230480 -68.234800  22.431900  -8.794280  -3.005180  -6.881260 -10.678200   4.249630  -8.686040  11.126600  39.584300  26.619700 -66.449400 -20.338000   0.001770   0.001415  -5.168970  -0.010138   0.002904 -30.868600   8.880550 -14.480900 -26.181100   0.004071   0.003489 -18.333100   0.004232   0.000174 -28.519900   2.170690  -3.986980 -37.361500   0.006241  -0.004332 -24.882700   0.007720  -0.003900 -28.746400   0.051366  -0.093786 -40.014400  -0.001336  -0.001522 -26.649600   0.003277   0.002423 -36.730900  -0.182242   0.244190 -55.096900   0.000000  -0.001151 -36.694500   0.000971  -0.000631   4.442610  -3.075810  15.091900  47.375300  11.194400  69.243100 -22.563200 -22.973800  79.504300  21.050100  63.382300 -13.684900 -16.997500  35.082900  56.710000  83.508400   0.004671  -0.041589  48.956600   0.002474   0.002767  19.265600   6.133130  17.019000  16.512200  -0.002548   0.004250  11.558500   0.003460   0.001366  22.152100  -1.997540  -4.878070  22.236800  -0.003799   0.001212  14.809700  -0.002666  -0.000341  62.340900  -5.916290  -3.088480  62.500100   0.000944   0.002320  46.875100   0.004774  -0.002998  67.596300  -9.263110  -3.793990 101.856000  -0.001801   0.001969  67.836000  -0.001137   0.004243   3.293910  12.487300   1.710960   1.051750   0.496203   0.937849  -3.852100  -4.013590   9.197620   0.000000   0.000000  -0.000000   1.389410   6.872780  -4.437800   0.923788   5.667570   4.252910  -4.806220  -3.667550   3.070820  -0.000000   0.000000   0.000000
